#!OML:ASF E:\Steps\Project 1\Capture day 1\Session 2\Subject.ASF
:FULLY-SPECIFIED
:DEGREES
315
root -1.01675 17.967 20.707 -153.669 -9.49541 177.604
lowerback -28.0933 0.527367 -7.50475
upperback -2.06897 2.53667 -0.830143
thorax 13.0021 0.479555 4.27938
lowerneck -3.20341 0.61313 1.94269
upperneck 18.2639 -0.495633 1.22446
head 6.05418 -0.394275 -0.00714777
rclavicle 3.25013e-014 -1.69961e-014
rhumerus -38.8632 -23.1598 -75.6569
rradius 21.6378
rwrist 5.0586
rhand -11.4343 -59.8568
rfingers 7.12502
rthumb 14.6021 630.677
lclavicle 3.25013e-014 -1.69961e-014
lhumerus -26.3567 -2.19559 86.4015
lradius 19.1245
lwrist -2.62795
lhand -21.7033 -11.4313
lfingers 7.12502
lthumb 4.69528 18.4967
rfemur -22.3351 3.36753 20.3712
rtibia 5.48561
rfoot -18.5884 -4.58554
rtoes -8.33701
lfemur -24.521 -8.78635 -22.2624
ltibia 7.27008
lfoot -5.53262 -7.11642
ltoes -32.0303
316
root -1.01884 17.9654 20.7103 -153.707 -9.33794 177.554
lowerback -28.1786 0.447344 -7.59282
upperback -2.0168 2.47292 -0.825115
thorax 13.1132 0.439743 4.31566
lowerneck -3.19522 0.602644 1.76572
upperneck 18.4733 -0.552471 1.37691
head 6.1192 -0.431382 0.065629
rclavicle -2.05245e-014 -2.25621e-014
rhumerus -38.7049 -23.689 -75.3392
rradius 20.9465
rwrist 6.53909
rhand -10.9539 -60.8283
rfingers 7.12502
rthumb 15.0649 810.26
lclavicle -2.05245e-014 -2.25621e-014
lhumerus -26.4805 -2.16824 86.4022
lradius 19.0002
lwrist -2.44964
lhand -21.5559 -11.3218
lfingers 7.12502
lthumb 4.8376 18.6029
rfemur -22.2976 3.10965 20.3498
rtibia 5.65392
rfoot -18.7572 -4.2345
rtoes -8.35569
lfemur -24.433 -8.70876 -22.3916
ltibia 7.22243
lfoot -5.48748 -7.08767
ltoes -31.823
317
root -1.0203 17.9635 20.7153 -153.784 -9.08498 177.443
lowerback -28.2638 0.370235 -7.75891
upperback -1.55543 2.45104 -0.714256
thorax 12.9157 0.438567 4.29031
lowerneck -3.20036 0.562732 1.59082
upperneck 18.6944 -0.657822 1.55556
head 6.19068 -0.490493 0.143326
rclavicle 2.44008e-014 1.86858e-014
rhumerus -38.4876 -23.8057 -75.2787
rradius 20.5111
rwrist 7.29408
rhand -12.6632 -59.9633
rfingers 7.12502
rthumb 13.4178 630.489
lclavicle 2.44008e-014 1.86858e-014
lhumerus -26.4891 -1.89955 86.3621
lradius 18.75
lwrist -2.5284
lhand -21.4895 -11.1884
lfingers 7.12502
lthumb 4.90173 18.7349
rfemur -22.2921 2.89455 20.2487
rtibia 5.80401
rfoot -18.7985 -3.93377
rtoes -8.74166
lfemur -24.2835 -8.58469 -22.6249
ltibia 7.15022
lfoot -5.47687 -7.01738
ltoes -32.0713
318
root -1.0225 17.9636 20.7212 -153.888 -8.79681 177.395
lowerback -28.2616 0.315726 -7.83236
upperback -1.46588 2.41807 -0.710336
thorax 13.0173 0.416413 4.32536
lowerneck -3.17651 0.539551 1.44193
upperneck 18.9056 -0.741466 1.71714
head 6.25434 -0.539582 0.2127
rclavicle 4.94725e-014 -1.799e-014
rhumerus -38.2742 -23.9433 -75.2055
rradius 19.9641
rwrist 8.309
rhand -13.5639 -59.1897
rfingers 7.12502
rthumb 12.5496 631.207
lclavicle 4.94725e-014 -1.799e-014
lhumerus -26.5276 -1.62588 86.276
lradius 18.5744
lwrist -2.5601
lhand -21.1961 -11.3488
lfingers 7.12502
lthumb 5.18504 18.5678
rfemur -22.1871 2.92678 20.1543
rtibia 5.79086
rfoot -18.7509 -3.72086
rtoes -8.60693
lfemur -24.1237 -8.26971 -22.837
ltibia 7.08553
lfoot -5.53234 -7.09957
ltoes -32.5495
319
root -1.02399 17.9641 20.7278 -153.925 -8.47311 177.421
lowerback -28.3106 0.27229 -7.83294
upperback -1.40213 2.37405 -0.704127
thorax 13.1182 0.391814 4.31937
lowerneck -3.1622 0.517873 1.25562
upperneck 19.133 -0.824989 1.88898
head 6.32519 -0.59113 0.291558
rclavicle 3.01656e-014 -3.69739e-014
rhumerus -38.2784 -24.7249 -74.7316
rradius 19.4407
rwrist 10.3557
rhand -13.7085 -58.5423
rfingers 7.12502
rthumb 12.4102 631.846
lclavicle 3.01656e-014 -3.69739e-014
lhumerus -26.6253 -1.23344 86.1424
lradius 18.4673
lwrist -2.81912
lhand -21.1282 -11.4934
lfingers 7.12502
lthumb 5.25061 18.4216
rfemur -22.1733 3.03864 20.1273
rtibia 5.74371
rfoot -18.6276 -3.59589
rtoes -9.17187
lfemur -24.0836 -7.99523 -22.9239
ltibia 7.07209
lfoot -5.65035 -7.05796
ltoes -32.9811
320
root -1.02373 17.9637 20.7358 -153.955 -8.16609 177.455
lowerback -28.3034 0.207849 -7.80973
upperback -1.37467 2.28315 -0.688528
thorax 13.1581 0.349882 4.29158
lowerneck -3.14316 0.4999 0.956372
upperneck 19.3692 -0.902154 2.09731
head 6.39842 -0.645736 0.401428
rclavicle -6.06542e-014 3.02153e-014
rhumerus -38.3222 -25.3239 -74.3548
rradius 19.1645
rwrist 12.058
rhand -13.5873 -58.682
rfingers 7.12502
rthumb 12.527 631.713
lclavicle -6.06542e-014 3.02153e-014
lhumerus -26.7825 -0.795346 86.0346
lradius 18.3199
lwrist -3.18879
lhand -21.4609 -11.1616
lfingers 7.12502
lthumb 4.92931 18.761
rfemur -22.2861 3.04781 20.1595
rtibia 5.82949
rfoot -18.5142 -3.57819
rtoes -11.3705
lfemur -24.0881 -7.84655 -22.9447
ltibia 7.09107
lfoot -5.72172 -6.90073
ltoes -33.1683
